<svg width="71" height="70" viewBox="0 0 71 70" fill="none" xmlns="http://www.w3.org/2000/svg">
<path d="M35.9386 65.625C52.8523 65.625 66.5636 51.9137 66.5636 35C66.5636 18.0863 52.8523 4.375 35.9386 4.375C19.0249 4.375 5.3136 18.0863 5.3136 35C5.3136 51.9137 19.0249 65.625 35.9386 65.625Z" stroke="white" stroke-width="2" stroke-miterlimit="10" stroke-linecap="round" stroke-linejoin="round"/>
<path d="M35.9386 39.375C41.9792 39.375 46.8761 34.4781 46.8761 28.4375C46.8761 22.3969 41.9792 17.5 35.9386 17.5C29.898 17.5 25.0011 22.3969 25.0011 28.4375C25.0011 34.4781 29.898 39.375 35.9386 39.375Z" stroke="white" stroke-width="2" stroke-miterlimit="10" stroke-linecap="round" stroke-linejoin="round"/>
<path d="M12.7511 54.9062C16.6886 45.9375 25.4386 39.5938 35.9386 39.5938C46.4386 39.5938 55.4074 45.9375 59.1261 54.9062" stroke="white" stroke-width="2" stroke-miterlimit="10" stroke-linecap="round" stroke-linejoin="round"/>
</svg>
