<svg width="53" height="52" viewBox="0 0 53 52" fill="none" xmlns="http://www.w3.org/2000/svg">
<g clip-path="url(#clip0_11_185)">
<path d="M41.6628 8.51054C39.0849 6.85834 34.243 4.55613 29.5913 6.68326C29.1435 6.88852 28.6334 6.56553 28.6334 6.07249V1.79709C28.6344 0.808994 27.9632 0 27.1432 0H24.9063C24.0863 0 23.4151 0.808994 23.4151 1.79709V6.32605C23.4151 6.75369 23.0278 7.07769 22.6082 6.99116C20.7195 6.60175 15.8152 5.99601 11.1253 8.79731C10.4833 9.18067 10.8556 10.1869 11.5922 10.0521C13.7756 9.65259 16.6494 9.37789 18.5914 10.1446C19.1005 10.3449 19.174 11.0412 18.7161 11.341C17.3366 12.2416 14.7919 14.3124 13.1246 18.1199C12.8409 18.7679 13.6378 19.3484 14.1842 18.8987C16.3143 17.1438 19.8189 14.7662 22.7913 15.1495C23.1415 15.1948 23.4071 15.4806 23.4021 15.8337C23.3719 17.8281 23.397 24.6039 25.0442 27.1687C25.3038 27.5732 25.8854 27.5933 26.1681 27.2039C27.2176 25.762 29.4927 21.9384 29.3991 15.9676C29.393 15.5751 29.708 15.2562 30.1004 15.2693C31.5997 15.3176 35.1395 15.7412 37.9468 18.4831C38.4067 18.9329 39.1684 18.5445 39.0879 17.9065C38.8675 16.1608 37.9066 13.5205 34.4281 11.4728C33.8999 11.1619 33.9894 10.371 34.5841 10.2251C35.7855 9.9303 37.8563 9.64957 41.2694 9.76226C41.9626 9.78339 42.2454 8.88384 41.6628 8.51054Z" fill="#88C057"/>
<path d="M42.4456 10.0521C42.352 9.98666 42.2434 9.9454 42.1297 9.93132C41.7272 9.88201 41.3237 9.83573 40.9212 9.78139C40.7773 9.7673 40.6324 9.75624 40.4895 9.74215C37.5574 9.69385 35.7171 9.94943 34.6072 10.2191C34.0045 10.366 33.8958 11.1559 34.4311 11.4708C37.9096 13.5185 38.8695 16.1588 39.0899 17.9035C39.1704 18.5415 38.4087 18.9299 37.9489 18.4801C35.1415 15.7392 31.6017 15.3156 30.1024 15.2662C29.71 15.2532 29.3941 15.5721 29.4011 15.9646C29.4937 21.9354 27.2196 25.759 26.1702 27.2009C25.8864 27.5903 25.3058 27.5702 25.0462 27.1657C23.399 24.6009 23.3739 17.825 23.4041 15.8307C23.4091 15.4786 23.1435 15.1918 22.7933 15.1465C19.821 14.7621 16.3163 17.1408 14.1862 18.8957C13.6398 19.3454 12.8429 18.7648 13.1266 18.1168C14.7919 14.3144 17.3326 12.2446 18.7131 11.342C19.173 11.0412 19.0965 10.3418 18.5843 10.1446C18.211 10.0007 17.8035 9.89409 17.3739 9.81862C17.2974 9.80453 17.2159 9.80353 17.1384 9.8146C14.6983 10.1466 12.3015 10.6105 9.97518 11.2344C9.87254 11.2615 9.77695 11.3108 9.69545 11.3793C4.56075 15.6516 1.33685 21.8026 1.33685 28.6418C1.33685 41.5425 12.8006 52 26.9409 52C41.0812 52 52.545 41.5425 52.545 28.6418C52.546 21.058 48.5835 14.3184 42.4456 10.0521Z" fill="#D13834"/>
<path d="M6.76838 34.8511C6.42425 34.8511 6.08919 34.675 5.90203 34.3581C5.14938 33.0872 4.65634 31.6836 4.43598 30.1863C4.35548 29.6359 4.73583 29.1248 5.28522 29.0443C5.84468 28.9578 6.34678 29.3441 6.42727 29.8935C6.60638 31.1141 7.02396 32.3034 7.63372 33.3328C7.91647 33.8107 7.7595 34.4285 7.28054 34.7113C7.11955 34.8059 6.94245 34.8511 6.76838 34.8511Z" fill="#ED7161"/>
<path d="M5.55793 26.8437C5.53478 26.8437 5.51064 26.8427 5.48749 26.8407C4.93206 26.8025 4.51449 26.3215 4.55272 25.7681C4.64731 24.4328 4.921 23.1358 5.36876 21.9103C5.55893 21.388 6.13449 21.1224 6.65973 21.3106C7.18195 21.5007 7.4496 22.0793 7.25943 22.6015C6.87606 23.649 6.64162 24.7609 6.56112 25.9069C6.52389 26.4382 6.08216 26.8437 5.55793 26.8437Z" fill="#ED7161"/>
<g clip-path="url(#clip1_11_185)">
<path d="M46.2209 17.6809L23.9055 47.758C23.4319 48.3627 22.7205 48.4828 22.1269 48.0003C22.0075 47.8802 22.0075 47.8802 21.8876 47.758L8.03749 29.1618C7.91908 29.0417 8.03749 28.9216 8.03749 28.9216C8.15538 28.8015 8.27378 28.9216 8.27378 28.9216L22.7348 39.6559L45.6284 17.1968C45.7463 17.0752 45.9841 17.0752 46.102 17.1968C46.2209 17.3164 46.2209 17.5587 46.2209 17.6809Z" fill="white"/>
</g>
</g>
<defs>
<clipPath id="clip0_11_185">
<rect width="52" height="52" fill="white" transform="translate(0.941406)"/>
</clipPath>
<clipPath id="clip1_11_185">
<rect width="41.2547" height="33.205" fill="white" transform="translate(7.98486 15.0932)"/>
</clipPath>
</defs>
</svg>
