<svg width="71" height="70" viewBox="0 0 71 70" fill="none" xmlns="http://www.w3.org/2000/svg">
<path d="M35.7473 43.75C40.5798 43.75 44.4973 39.8325 44.4973 35C44.4973 30.1675 40.5798 26.25 35.7473 26.25C30.9148 26.25 26.9973 30.1675 26.9973 35C26.9973 39.8325 30.9148 43.75 35.7473 43.75Z" stroke="white" stroke-width="2" stroke-linecap="round" stroke-linejoin="round"/>
<path d="M57.3306 43.75C56.9424 44.6297 56.8266 45.6056 56.9981 46.5517C57.1697 47.4979 57.6207 48.3709 58.2931 49.0583L58.4681 49.2333C59.0105 49.7751 59.4408 50.4184 59.7343 51.1266C60.0279 51.8347 60.179 52.5938 60.179 53.3604C60.179 54.127 60.0279 54.8861 59.7343 55.5942C59.4408 56.3024 59.0105 56.9457 58.4681 57.4875C57.9264 58.0298 57.283 58.4601 56.5749 58.7537C55.8667 59.0472 55.1077 59.1983 54.3411 59.1983C53.5745 59.1983 52.8154 59.0472 52.1072 58.7537C51.3991 58.4601 50.7557 58.0298 50.214 57.4875L50.039 57.3125C49.3516 56.6401 48.4785 56.189 47.5324 56.0175C46.5862 55.8459 45.6104 55.9617 44.7306 56.35C43.868 56.7197 43.1323 57.3336 42.614 58.1161C42.0958 58.8986 41.8177 59.8156 41.814 60.7542V61.25C41.814 62.7971 41.1994 64.2808 40.1054 65.3748C39.0115 66.4687 37.5277 67.0833 35.9806 67.0833C34.4335 67.0833 32.9498 66.4687 31.8559 65.3748C30.7619 64.2808 30.1473 62.7971 30.1473 61.25V60.9875C30.1247 60.0221 29.8122 59.0858 29.2505 58.3004C28.6887 57.5149 27.9036 56.9166 26.9973 56.5833C26.1176 56.1951 25.1417 56.0793 24.1956 56.2508C23.2494 56.4224 22.3764 56.8734 21.689 57.5458L21.514 57.7208C20.9722 58.2632 20.3289 58.6934 19.6207 58.987C18.9126 59.2806 18.1535 59.4317 17.3869 59.4317C16.6203 59.4317 15.8612 59.2806 15.1531 58.987C14.4449 58.6934 13.8016 58.2632 13.2598 57.7208C12.7174 57.1791 12.2872 56.5357 11.9936 55.8276C11.7001 55.1194 11.549 54.3603 11.549 53.5937C11.549 52.8271 11.7001 52.0681 11.9936 51.3599C12.2872 50.6518 12.7174 50.0084 13.2598 49.4667L13.4348 49.2917C14.1072 48.6043 14.5583 47.7312 14.7298 46.785C14.9014 45.8389 14.7856 44.863 14.3973 43.9833C14.0276 43.1207 13.4137 42.3849 12.6312 41.8667C11.8486 41.3485 10.9317 41.0704 9.99314 41.0667H9.4973C7.95021 41.0667 6.46648 40.4521 5.37251 39.3581C4.27855 38.2641 3.66397 36.7804 3.66397 35.2333C3.66397 33.6862 4.27855 32.2025 5.37251 31.1085C6.46648 30.0146 7.95021 29.4 9.4973 29.4H9.7598C10.7252 29.3774 11.6615 29.0649 12.4469 28.5031C13.2324 27.9414 13.8306 27.1563 14.164 26.25C14.5522 25.3703 14.668 24.3944 14.4965 23.4483C14.3249 22.5021 13.8739 21.6291 13.2015 20.9417L13.0265 20.7667C12.4841 20.2249 12.0538 19.5815 11.7603 18.8734C11.4667 18.1652 11.3156 17.4062 11.3156 16.6396C11.3156 15.873 11.4667 15.1139 11.7603 14.4058C12.0538 13.6976 12.4841 13.0542 13.0265 12.5125C13.5682 11.9701 14.2116 11.5399 14.9197 11.2463C15.6279 10.9527 16.387 10.8017 17.1536 10.8017C17.9201 10.8017 18.6792 10.9527 19.3874 11.2463C20.0955 11.5399 20.7389 11.9701 21.2806 12.5125L21.4556 12.6875C22.143 13.3599 23.0161 13.8109 23.9623 13.9825C24.9084 14.1541 25.8843 14.0382 26.764 13.65H26.9973C27.86 13.2803 28.5957 12.6664 29.1139 11.8838C29.6321 11.1013 29.9102 10.1844 29.914 9.24582V8.74999C29.914 7.20289 30.5286 5.71916 31.6225 4.6252C32.7165 3.53124 34.2002 2.91666 35.7473 2.91666C37.2944 2.91666 38.7781 3.53124 39.8721 4.6252C40.9661 5.71916 41.5806 7.20289 41.5806 8.74999V9.01249C41.5844 9.95103 41.8625 10.868 42.3807 11.6505C42.8989 12.433 43.6346 13.0469 44.4973 13.4167C45.377 13.8049 46.3529 13.9207 47.299 13.7492C48.2452 13.5776 49.1182 13.1266 49.8056 12.4542L49.9806 12.2792C50.5224 11.7368 51.1658 11.3065 51.8739 11.013C52.5821 10.7194 53.3411 10.5683 54.1077 10.5683C54.8743 10.5683 55.6334 10.7194 56.3415 11.013C57.0497 11.3065 57.693 11.7368 58.2348 12.2792C58.7772 12.8209 59.2074 13.4643 59.501 14.1724C59.7945 14.8806 59.9457 15.6396 59.9457 16.4062C59.9457 17.1728 59.7945 17.9319 59.501 18.6401C59.2074 19.3482 58.7772 19.9916 58.2348 20.5333L58.0598 20.7083C57.3874 21.3957 56.9364 22.2688 56.7648 23.2149C56.5932 24.1611 56.7091 25.1369 57.0973 26.0167V26.25C57.467 27.1126 58.0809 27.8484 58.8635 28.3666C59.646 28.8848 60.5629 29.1629 61.5015 29.1667H61.9973C63.5444 29.1667 65.0281 29.7812 66.1221 30.8752C67.2161 31.9692 67.8306 33.4529 67.8306 35C67.8306 36.5471 67.2161 38.0308 66.1221 39.1248C65.0281 40.2187 63.5444 40.8333 61.9973 40.8333H61.7348C60.7963 40.8371 59.8793 41.1152 59.0968 41.6334C58.3143 42.1516 57.7004 42.8873 57.3306 43.75V43.75Z" stroke="white" stroke-width="2" stroke-linecap="round" stroke-linejoin="round"/>
</svg>
